<?xml version="1.0" standalone="no"?>
<!DOCTYPE svg PUBLIC "-//W3C//DTD SVG 20010904//EN"
 "http://www.w3.org/TR/2001/REC-SVG-20010904/DTD/svg10.dtd">
<svg version="1.0" xmlns="http://www.w3.org/2000/svg"
 width="500.000000pt" height="500.000000pt" viewBox="0 0 500.000000 500.000000"
 preserveAspectRatio="xMidYMid meet">

<g transform="translate(0.000000,500.000000) scale(0.100000,-0.100000)"
fill="#000000" stroke="none">
<path d="M0 2500 l0 -2500 2500 0 2500 0 0 2500 0 2500 -2500 0 -2500 0 0
-2500z m2327 964 c-3 -3 -12 -4 -19 -1 -8 3 -5 6 6 6 11 1 17 -2 13 -5z m366
-1 c-7 -2 -21 -2 -30 0 -10 3 -4 5 12 5 17 0 24 -2 18 -5z m-416 -9 c-3 -3
-12 -4 -19 -1 -8 3 -5 6 6 6 11 1 17 -2 13 -5z m470 0 c-3 -3 -12 -4 -19 -1
-8 3 -5 6 6 6 11 1 17 -2 13 -5z m-517 -13 c-8 -5 -28 -11 -45 -14 l-30 -6 30
14 c34 16 72 21 45 6z m585 -6 c39 -17 21 -18 -25 0 -19 7 -28 14 -20 14 8 0
29 -6 45 -14z m-278 -20 c0 -8 -5 -15 -11 -16 -6 0 -21 -2 -34 -3 -13 -2 -25
1 -28 6 -5 8 8 12 38 9 9 -1 19 3 23 9 9 14 12 13 12 -5z m193 5 c0 -5 -2 -10
-4 -10 -3 0 -8 5 -11 10 -3 6 -1 10 4 10 6 0 11 -4 11 -10z m-585 -10 c-3 -5
-14 -10 -23 -10 -15 0 -15 2 -2 10 20 13 33 13 25 0z m806 -36 c49 -25 89 -50
89 -55 0 -5 3 -8 8 -6 4 1 8 -2 9 -6 0 -5 14 -23 30 -40 23 -26 24 -28 3 -12
-13 11 -35 33 -49 49 -23 26 -153 96 -180 96 -6 0 -11 5 -11 10 0 15 5 13 101
-36z m-514 20 c-3 -3 -12 -4 -19 -1 -8 3 -5 6 6 6 11 1 17 -2 13 -5z m-407
-39 c-7 -9 -15 -13 -19 -10 -3 3 1 10 9 15 21 14 24 12 10 -5z m-50 -55 c0 -5
-5 -10 -11 -10 -5 0 -7 5 -4 10 3 6 8 10 11 10 2 0 4 -4 4 -10z m721 -47 c13
-16 12 -17 -3 -4 -17 13 -22 21 -14 21 2 0 10 -8 17 -17z m453 -11 c3 -5 -1
-9 -9 -9 -8 0 -12 4 -9 9 3 4 7 8 9 8 2 0 6 -4 9 -8z m-1115 -5 c-2 -2 -20
-11 -39 -20 l-35 -17 24 20 c13 11 30 20 39 20 8 0 13 -2 11 -3z m1201 -83
l45 -48 -60 54 c-33 29 -62 56 -65 58 -3 3 4 0 15 -6 11 -6 40 -32 65 -58z
m-1097 1 c-10 -13 -22 -25 -27 -25 -5 0 1 11 14 25 30 32 36 32 13 0z m-376
-9 c-53 -58 -95 -114 -112 -150 -11 -22 -21 -34 -23 -28 -7 21 126 202 148
202 5 0 -1 -11 -13 -24z m131 0 c-7 -8 -15 -12 -17 -11 -5 6 10 25 20 25 5 0
4 -6 -3 -14z m1466 -157 c16 -27 25 -53 22 -56 -3 -4 -6 -2 -6 3 0 6 -16 36
-35 68 -19 32 -29 53 -22 47 8 -6 26 -34 41 -62z m-1057 19 c-3 -8 -6 -5 -6 6
-1 11 2 17 5 13 3 -3 4 -12 1 -19z m917 -14 c5 -14 4 -15 -9 -4 -17 14 -19 20
-6 20 5 0 12 -7 15 -16z m-1314 -168 c0 -2 -7 -7 -16 -10 -8 -3 -12 -2 -9 4 6
10 25 14 25 6z m1335 -67 c-10 -15 -25 -10 -19 6 4 8 10 12 15 9 5 -3 7 -10 4
-15z m-1668 -31 c-3 -8 -6 -5 -6 6 -1 11 2 17 5 13 3 -3 4 -12 1 -19z m276
-13 c-7 -21 -13 -19 -13 6 0 11 4 18 10 14 5 -3 7 -12 3 -20z m387 -215 l0
-190 -45 0 -45 0 0 190 0 190 45 0 45 0 0 -190z m1165 172 c-3 -3 -11 0 -18 7
-9 10 -8 11 6 5 10 -3 15 -9 12 -12z m-1785 5 c0 -2 -13 -16 -30 -32 -16 -16
-30 -26 -30 -22 0 3 12 18 27 32 27 24 33 28 33 22z m460 -42 l0 -35 -60 0
-60 0 0 -35 0 -35 55 0 55 0 0 -35 0 -35 -56 0 -55 0 3 -37 3 -38 58 -3 57 -3
0 -34 0 -33 -67 -4 c-38 -2 -83 -2 -100 0 l-33 3 0 180 0 179 100 0 100 0 0
-35z m1370 -10 c14 -19 14 -19 -2 -6 -10 7 -18 18 -18 24 0 6 1 8 3 6 1 -2 9
-13 17 -24z m-1040 -10 c0 -22 4 -25 35 -25 33 0 35 -2 35 -35 0 -33 -2 -35
-35 -35 l-36 0 3 -67 3 -68 36 -3 c33 -3 36 -5 31 -30 -6 -33 -18 -42 -59 -42
-77 0 -103 38 -103 153 0 44 -3 57 -15 57 -20 0 -19 36 0 44 9 3 25 21 36 41
26 44 69 50 69 10z m-867 -35 c-3 -12 -8 -19 -11 -16 -5 6 5 36 12 36 2 0 2
-9 -1 -20z m1195 -10 c56 -34 77 -115 48 -185 -36 -85 -173 -100 -226 -25 -30
42 -36 116 -13 160 34 65 126 89 191 50z m199 0 c6 -24 16 -25 33 -5 17 21 75
29 109 15 41 -17 51 -48 51 -165 l0 -105 -40 0 -40 0 -1 78 c-1 100 -9 126
-37 130 -43 6 -52 -13 -52 -114 l0 -94 -45 0 -45 0 0 140 0 140 31 0 c22 0 32
-5 36 -20z m560 -82 c-2 -13 -4 -5 -4 17 -1 22 1 32 4 23 2 -10 2 -28 0 -40z
m-1990 -20 c-3 -8 -6 -5 -6 6 -1 11 2 17 5 13 3 -3 4 -12 1 -19z m27 -64 c3
-8 2 -12 -4 -9 -6 3 -10 10 -10 16 0 14 7 11 14 -7z m1633 -46 c-3 -7 -5 -2
-5 12 0 14 2 19 5 13 2 -7 2 -19 0 -25z m273 8 c0 -2 -8 -10 -17 -17 -16 -13
-17 -12 -4 4 13 16 21 21 21 13z m-67 -61 c-3 -9 -8 -14 -10 -11 -3 3 -2 9 2
15 9 16 15 13 8 -4z m-1836 -37 c-3 -8 -6 -5 -6 6 -1 11 2 17 5 13 3 -3 4 -12
1 -19z m1648 -8 c3 -5 1 -10 -4 -10 -6 0 -11 5 -11 10 0 6 2 10 4 10 3 0 8 -4
11 -10z m-1415 -34 c0 -3 -4 -8 -10 -11 -5 -3 -10 -1 -10 4 0 6 5 11 10 11 6
0 10 -2 10 -4z m-201 -61 c0 -5 -4 -3 -9 5 -5 8 -9 22 -9 30 0 16 17 -16 18
-35z m141 11 c0 -2 -8 -10 -17 -17 -16 -13 -17 -12 -4 4 13 16 21 21 21 13z
m1697 -78 c-3 -8 -6 -5 -6 6 -1 11 2 17 5 13 3 -3 4 -12 1 -19z m-1617 -53
c14 -19 14 -19 -2 -6 -10 7 -18 18 -18 24 0 6 1 8 3 6 1 -2 9 -13 17 -24z
m1591 -8 c-10 -9 -11 -8 -5 6 3 10 9 15 12 12 3 -3 0 -11 -7 -18z m-684 -39
c-3 -7 -5 -2 -5 12 0 14 2 19 5 13 2 -7 2 -19 0 -25z m-1047 2 c6 -11 8 -20 6
-20 -3 0 -10 9 -16 20 -6 11 -8 20 -6 20 3 0 10 -9 16 -20z m1710 0 c-6 -11
-13 -20 -16 -20 -2 0 0 9 6 20 6 11 13 20 16 20 2 0 0 -9 -6 -20z m-1647 -87
c25 -28 47 -50 49 -47 3 2 5 -3 5 -11 0 -8 -3 -15 -6 -15 -7 1 -83 96 -96 120
-10 19 -8 16 48 -47z m177 12 c13 -14 21 -25 18 -25 -2 0 -15 11 -28 25 -13
14 -21 25 -18 25 2 0 15 -11 28 -25z m1258 8 c-9 -10 -18 -25 -21 -33 -4 -12
-6 -12 -6 2 -1 9 6 24 15 32 21 22 31 20 12 -1z m122 -66 c0 -2 -12 -14 -27
-28 l-28 -24 24 28 c23 25 31 32 31 24z m-1299 -24 c13 -16 12 -17 -3 -4 -10
7 -18 15 -18 17 0 8 8 3 21 -13z m1099 14 c0 -2 -10 -12 -22 -23 l-23 -19 19
23 c18 21 26 27 26 19z m-855 -37 c3 -5 1 -10 -4 -10 -6 0 -11 5 -11 10 0 6 2
10 4 10 3 0 8 -4 11 -10z m635 -3 c0 -2 -10 -12 -22 -23 l-23 -19 19 23 c18
21 26 27 26 19z m140 -38 c0 -5 -4 -9 -8 -9 -5 0 -9 7 -9 15 0 8 4 12 9 9 4
-3 8 -9 8 -15z m210 18 c0 -2 -10 -12 -22 -23 l-23 -19 19 23 c18 21 26 27 26
19z m-73 -62 c-15 -14 -33 -25 -40 -25 -6 0 4 11 23 25 45 31 53 31 17 0z
m-455 -57 c-8 -8 -9 -4 -5 13 4 13 8 18 11 10 2 -7 -1 -18 -6 -23z m-519 -93
c43 -18 51 -30 10 -14 -60 22 -163 72 -163 79 0 4 26 -5 58 -21 31 -15 74 -35
95 -44z m808 62 c-6 -8 -9 -17 -6 -21 3 -3 0 -2 -6 3 -12 10 -4 31 13 31 7 0
7 -4 -1 -13z m-405 -40 c3 -2 -13 -7 -35 -9 -23 -2 -41 -1 -41 3 0 3 -12 5
-27 3 -25 -3 -25 -3 -5 4 26 8 100 8 108 -1z m325 -18 c-77 -35 -117 -47 -107
-30 4 6 15 11 24 11 9 0 40 11 67 24 28 14 57 24 65 24 8 0 -14 -13 -49 -29z
m-331 -44 c13 -14 21 -25 18 -25 -2 0 -15 11 -28 25 -13 14 -21 25 -18 25 2 0
15 -11 28 -25z m207 -1 c-3 -3 -12 -4 -19 -1 -8 3 -5 6 6 6 11 1 17 -2 13 -5z
m-424 -11 c-7 -2 -21 -2 -30 0 -10 3 -4 5 12 5 17 0 24 -2 18 -5z m77 -3 c-8
-5 -26 -9 -40 -9 -23 1 -23 2 5 9 43 11 52 11 35 0z m233 -7 c-7 -2 -21 -2
-30 0 -10 3 -4 5 12 5 17 0 24 -2 18 -5z"/>
<path d="M2636 2514 c-10 -10 -16 -33 -16 -64 0 -69 37 -102 74 -64 35 35 13
144 -29 144 -7 0 -21 -7 -29 -16z"/>
</g>
</svg>
